Coordinates
version=1
nRows=14
nColumns=24
inDegrees=yes

Units are S.I. units (second, meters, Newtons, ...)
Angles are in degrees.

endheader
time	pelvis_tilt	pelvis_list	pelvis_rotation	pelvis_tx	pelvis_ty	pelvis_tz	hip_flexion_r	hip_adduction_r	hip_rotation_r	knee_angle_r	ankle_angle_r	subtalar_angle_r	mtp_angle_r	hip_flexion_l	hip_adduction_l	hip_rotation_l	knee_angle_l	ankle_angle_l	subtalar_angle_l	mtp_angle_l	lumbar_extension	lumbar_bending	lumbar_rotation
      0.72416667	      0.37598369	     -2.30414344	      2.58435112	     -0.40060589	      0.99153473	      0.30830689	     11.53868703	      6.35448542	     -3.19522479	    -19.26371223	      8.73782938	     -6.58936737	      2.58704545	     20.67368131	     -2.41217621	     -0.02443920	    -72.11171600	     -6.91622309	    -10.22284287	      1.36318185	     -1.61287123	      5.71656721	      2.81694177
      0.72833333	      0.41429650	     -2.23105504	      2.54765031	     -0.39538932	      0.99245121	      0.30850130	     10.93572650	      6.29836050	     -3.22901417	    -18.83631179	      8.79922980	     -6.34623954	      2.58448040	     21.23521338	     -2.28375317	     -0.00178839	    -71.90085030	     -6.36568607	    -10.45719381	      1.16272360	     -1.70278554	      5.64253788	      2.94186159
      0.73250000	      0.45767642	     -2.14517313	      2.49475462	     -0.39013811	      0.99336936	      0.30870211	     10.32517217	      6.22689532	     -3.26337811	    -18.41067316	      8.86929142	     -6.11974108	      2.58412902	     21.75867198	     -2.14973639	     -0.00486152	    -71.60757659	     -5.81400391	    -10.67364063	      0.96391982	     -1.77577003	      5.54283161	      3.06718318
      0.73666667	      0.46251978	     -2.05699831	      2.42319839	     -0.38491148	      0.99419997	      0.30893463	      9.76846394	      6.15725005	     -3.25943386	    -18.00986412	      8.94876490	     -5.97536968	      2.58596686	     22.30592809	     -2.02119819	     -0.03109181	    -71.25387911	     -5.24474358	    -10.90117245	      0.87987352	     -1.80728277	      5.43039010	      3.15044966
      0.74083333	      0.54218902	     -1.94787762	      2.35500304	     -0.37964333	      0.99513198	      0.30912350	      9.11037208	      6.05985077	     -3.27623630	    -17.56907876	      9.01385401	     -5.69294398	      2.59068795	     22.73390856	     -1.86924561	     -0.05716054	    -70.80639016	     -4.70145715	    -11.04007623	      0.72059345	     -1.92712039	      5.32131331	      3.33775580
      0.74500000	      0.54677751	     -1.85784006	      2.26013519	     -0.37441299	      0.99588506	      0.30936274	      8.56074514	      5.98525379	     -3.26255060	    -17.18079807	      9.09333914	     -5.52357784	      2.59515542	     23.23498916	     -1.75253446	     -0.11594021	    -70.32150652	     -4.12191165	    -11.22609907	      0.63740667	     -1.95229690	      5.21164214	      3.44120636
      0.74916667	      0.59295484	     -1.75821785	      2.17652687	     -0.36917284	      0.99667301	      0.30956644	      7.94927781	      5.89705973	     -3.25673159	    -16.75453577	      9.16693142	     -5.23476877	      2.60386430	     23.66344007	     -1.61705749	     -0.15249194	    -69.75946626	     -3.56443031	    -11.30527082	      0.47336378	     -2.04393020	      5.10622838	      3.65806175
      0.75333333	      0.60893896	     -1.65655951	      2.05293462	     -0.36393694	      0.99737014	      0.30981042	      7.39277373	      5.80674931	     -3.22502348	    -16.37657415	      9.24513729	     -5.03904666	      2.61125381	     24.09858422	     -1.50081853	     -0.24548180	    -69.13847253	     -2.98120179	    -11.44075728	      0.36474705	     -2.07864283	      4.99554393	      3.79038274
      0.75750000	      0.64404438	     -1.54859540	      1.94109671	     -0.35869737	      0.99806453	      0.31003411	      6.80534765	      5.70738028	     -3.19811144	    -15.97505318	      9.32539451	     -4.79580576	      2.62131532	     24.48999130	     -1.37421715	     -0.32517579	    -68.44872158	     -2.42313724	    -11.51339169	      0.23839838	     -2.14540423	      4.87714613	      3.97258766
      0.76166667	      0.68418147	     -1.45064394	      1.82805052	     -0.35347442	      0.99870503	      0.31025083	      6.21459870	      5.61772657	     -3.16415999	    -15.57299319	      9.40537686	     -4.53030072	      2.63514968	     24.85903919	     -1.25866391	     -0.39945251	    -67.70766105	     -1.86667681	    -11.56217153	      0.07715127	     -2.23708361	      4.76698407	      4.17800548
      0.76583333	      0.63062312	     -1.36347544	      1.70083030	     -0.34829930	      0.99914648	      0.31048179	      5.74531293	      5.54081175	     -3.08347733	    -15.20632380	      9.49797053	     -4.38620407	      2.64198423	     25.32217980	     -1.15345932	     -0.47971351	    -66.92900708	     -1.32264107	    -11.67675694	      0.02912335	     -2.21681651	      4.65921422	      4.25212260
      0.77000000	      0.71818632	     -1.26685798	      1.55973489	     -0.34302517	      0.99977125	      0.31073234	      5.10163379	      5.44910720	     -3.05804432	    -14.80192350	      9.56219582	     -4.10430174	      2.65660816	     25.58214986	     -1.07151323	     -0.60669880	    -66.05994758	     -0.76840348	    -11.64017765	     -0.11570781	     -2.33569868	      4.55303162	      4.50968932
      0.77416667	      0.68998009	     -1.18290576	      1.39761940	     -0.33784286	      1.00014304	      0.31096794	      4.61889901	      5.36919232	     -2.96561824	    -14.46030255	      9.63638340	     -3.91710674	      2.66705780	     25.96374961	     -0.98927529	     -0.72551545	    -65.16072505	     -0.22415203	    -11.69618054	     -0.19987541	     -2.33930704	      4.47856159	      4.63130637
      0.77833333	      0.74298906	     -1.10072643	      1.27216079	     -0.33259009	      1.00061216	      0.31118878	      4.01134136	      5.29025759	     -2.93208728	    -14.04414872	      9.71604192	     -3.66892762	      2.68333512	     26.22999407	     -0.91185370	     -0.82813517	    -64.19339966	      0.26285751	    -11.66732652	     -0.35094303	     -2.42762975	      4.36929452	      4.85676823
